<?xml version="1.0" encoding="utf-8"?>
<!-- Generator: Adobe Illustrator 23.0.0, SVG Export Plug-In . SVG Version: 6.00 Build 0)  -->
<svg version="1.1" id="Layer_1" xmlns="http://www.w3.org/2000/svg" xmlns:xlink="http://www.w3.org/1999/xlink" x="0px" y="0px"
	 viewBox="0 0 870 298" style="enable-background:new 0 0 870 298;" xml:space="preserve">
<style type="text/css">
	.st0{opacity:0.2;}
	.st1{fill:#2470DF;}
	.st2{opacity:0.1;}
	.st3{fill:none;stroke:#2470DF;stroke-width:2;stroke-miterlimit:10;}
	.st4{fill:#FFFFFF;}
	.st5{opacity:0.4;}
	.st6{fill:#56DEFF;}
	.st7{fill:none;stroke:#56DEFF;stroke-width:12;stroke-miterlimit:10;}
	.st8{fill:none;stroke:#FFDB17;stroke-width:3;stroke-miterlimit:10;}
	.st9{fill:#0FF7AA;}
	.st10{fill:#56DEFF;stroke:#2470DF;stroke-width:2;stroke-miterlimit:10;}
	.st11{fill:#0092B3;}
	.st12{fill:none;stroke:#0092B3;stroke-width:2;stroke-miterlimit:10;}
	.st13{fill:#FFDB17;}
	.st14{fill:#FFFFFF;stroke:#FF922B;stroke-width:2;stroke-miterlimit:10;}
	.st15{fill:#FFFFFF;stroke:#0FF7AA;stroke-width:2;stroke-miterlimit:10;}
	.st16{fill:#FFFFFF;stroke:#30D7FF;stroke-width:2;stroke-miterlimit:10;}
	.st17{fill:#FFFFFF;stroke:#D787FF;stroke-width:2;stroke-miterlimit:10;}
	.st18{fill:none;stroke:#56DEFF;stroke-width:2;stroke-miterlimit:10;}
</style>
<g class="st0">
	<path class="st1" d="M40.3,145C29.9,194,18.5,242.8,6,291.2c-0.5,1.9,2.4,2.7,2.9,0.8c12.5-48.5,23.9-97.2,34.2-146.2
		C43.6,144,40.7,143.1,40.3,145L40.3,145z"/>
	<path class="st1" d="M772,141.9c16,0.1,32.1,0.5,48.1,0.4c1.9,0,1.9-3,0-3c-16,0-32.1-0.3-48.1-0.4
		C770.1,138.9,770.1,141.9,772,141.9L772,141.9z"/>
	<path class="st1" d="M526,141.2c65.7-0.5,131.3-0.3,197,0.3c1.9,0,1.9-3,0-3c-65.7-0.6-131.3-0.8-197-0.3
		C524.1,138.2,524.1,141.2,526,141.2L526,141.2z"/>
	<path class="st1" d="M41,142c69.1-0.1,138.1,1.1,207.2,2.1c14.3,0.2,28.5,0.4,42.8,0.6c1.9,0,1.9-3,0-3
		c-64.2-0.9-128.4-2.1-192.7-2.6C79.2,139.1,60.1,139,41,139C39.1,139,39.1,142,41,142L41,142z"/>
	<path class="st1" d="M814.9,140.1c17.1,50,31,101,41.9,152.7c0.4,1.9,3.3,1.1,2.9-0.8c-10.8-51.7-24.8-102.7-41.9-152.7
		C817.1,137.5,814.2,138.3,814.9,140.1L814.9,140.1z"/>
	<path class="st1" d="M80.5,169.9c6.7,7.8,12.3,16.6,18.4,24.8c5.9,8.1,11.7,16.1,17.6,24.2c11.7,16.1,23.4,32.2,35.2,48.3
		c1.1,1.5,3.7,0,2.6-1.5c-12.1-16.6-24.2-33.3-36.3-49.9c-5.9-8.1-11.7-16.1-17.6-24.2c-5.8-8-11.3-16.4-17.7-23.8
		C81.4,166.4,79.3,168.5,80.5,169.9L80.5,169.9z"/>
	<path class="st1" d="M83.6,167.6c21.6-6.8,43.2-13.6,64.9-20.4c1.8-0.6,1.1-3.5-0.8-2.9c-21.6,6.8-43.2,13.6-64.9,20.4
		C81,165.3,81.8,168.2,83.6,167.6L83.6,167.6z"/>
	<path class="st1" d="M229.7,222.2c2,3,4,6,6,9c1.1,1.6,3.7,0.1,2.6-1.5c-2-3-4-6-6-9C231.3,219.1,228.7,220.6,229.7,222.2
		L229.7,222.2z"/>
	<path class="st1" d="M235.5,230.6c-7.7,3.7-15.6,6.4-23.9,8.3c-1.9,0.4-1.1,3.3,0.8,2.9c8.5-1.9,16.7-4.8,24.6-8.6
		C238.7,232.4,237.2,229.8,235.5,230.6L235.5,230.6z"/>
	<path class="st1" d="M158,266.2c20.2-14.9,46.1-17.9,68.3-28.7c1.7-0.9,0.2-3.4-1.5-2.6c-22.2,10.9-48,13.8-68.3,28.7
		C155,264.8,156.5,267.4,158,266.2L158,266.2z"/>
	<path class="st1" d="M102.7,180.8c10.2-5.2,20.7-9.6,31.6-13.1c1.8-0.6,1.1-3.5-0.8-2.9c-11.1,3.6-21.9,8-32.3,13.4
		C99.5,179.1,101,181.6,102.7,180.8L102.7,180.8z"/>
	<path class="st1" d="M106.3,189.6c12.1-4.9,24.1-9.8,36.2-14.6c1.8-0.7,1-3.6-0.8-2.9c-12.1,4.9-24.1,9.8-36.2,14.6
		C103.7,187.4,104.5,190.3,106.3,189.6L106.3,189.6z"/>
	<path class="st1" d="M117.6,197.5c2.7-1.6,5.4-3.2,8.1-4.8c1.7-1,0.2-3.6-1.5-2.6c-2.7,1.6-5.4,3.2-8.1,4.8
		C114.4,195.9,115.9,198.5,117.6,197.5L117.6,197.5z"/>
	<path class="st1" d="M124.7,207.7c12.4-6.5,25.3-11.7,38.7-15.8c1.8-0.6,1.1-3.4-0.8-2.9c-13.6,4.1-26.8,9.5-39.4,16.1
		C121.5,206,123,208.6,124.7,207.7L124.7,207.7z"/>
	<path class="st1" d="M130.9,220.2c8.9-4.1,17.9-8.2,26.9-12.3c1.8-0.8,0.2-3.4-1.5-2.6c-8.9,4.1-17.9,8.2-26.9,12.3
		C127.7,218.4,129.2,221,130.9,220.2L130.9,220.2z"/>
	<path class="st1" d="M144.8,224.9c12.1-6.9,24.9-12,38.5-15.2c1.9-0.4,1.1-3.3-0.8-2.9c-13.8,3.2-26.9,8.4-39.2,15.5
		C141.6,223.3,143.1,225.9,144.8,224.9L144.8,224.9z"/>
	<path class="st1" d="M144.8,243.9c12.7-8,26.3-14.3,40.6-18.9c1.8-0.6,1.1-3.5-0.8-2.9c-14.5,4.7-28.4,11.1-41.3,19.2
		C141.7,242.3,143.2,244.9,144.8,243.9L144.8,243.9z"/>
	<path class="st1" d="M293,10c77.9-4,156-4.8,234-2.4c1.9,0.1,1.9-2.9,0-3C449,2.1,370.9,2.9,293,7C291,7.1,291,10.1,293,10L293,10z
		"/>
	<path class="st1" d="M531,9.2c-5.9,40.2-9.2,80.7-10,121.3c0,1.9,3,1.9,3,0c0.8-40.3,4.1-80.6,9.9-120.5
		C534.2,8.1,531.3,7.3,531,9.2L531,9.2z"/>
	<path class="st1" d="M292.8,10.5c-0.5,30,0.3,60.1,2.5,90c0.1,1.9,3.1,1.9,3,0c-2.2-30-3-60-2.5-90C295.8,8.6,292.8,8.6,292.8,10.5
		L292.8,10.5z"/>
	<path class="st1" d="M295,98.5c0.2,8.6,0.3,17.2,0.5,25.8c0.2,8.9,1.1,18.1-0.3,26.9c-0.3,1.9,2.6,2.7,2.9,0.8
		c1.4-8.5,0.6-17.2,0.4-25.8c-0.2-9.2-0.4-18.5-0.5-27.8C298,96.6,295,96.6,295,98.5L295,98.5z"/>
	<path class="st1" d="M297,158c73.5,0.7,146.9-0.8,220.3,0c1.9,0,1.9-3,0-3c-73.5-0.7-146.9,0.8-220.3,0
		C295.1,155,295.1,158,297,158L297,158z"/>
	<path class="st1" d="M520,128.6c-1,9.6-1.7,19.3-2.2,28.9c-0.1,1.9,2.9,1.9,3,0c0.5-9.6,1.3-19.3,2.2-28.9
		C523.2,126.6,520.2,126.6,520,128.6L520,128.6z"/>
	<path class="st1" d="M310.1,32c35.6-8.3,72.7-8.1,109-9.7c1.9-0.1,1.9-3.1,0-3c-36.6,1.6-74,1.5-109.8,9.8
		C307.4,29.6,308.2,32.5,310.1,32L310.1,32z"/>
	<path class="st1" d="M417.4,23.5c-0.2,24.3-0.4,48.7-0.7,73c0,1.9,3,1.9,3,0c0.2-24.3,0.4-48.7,0.7-73
		C420.4,21.6,417.4,21.6,417.4,23.5L417.4,23.5z"/>
	<path class="st1" d="M309.2,37.3c0.2-0.1,0.3-0.3,0.5-0.4c-0.6,0.1-1.2,0.2-1.8,0.2c1.6,0.8,1.1,7.2,1.2,8.8
		c0.1,2.7,0.2,5.3,0.3,7.9c0.2,5.6,0.5,11.3,0.7,16.9c0.5,10.9,0.9,21.8,1.4,32.8c0.1,1.9,3.1,1.9,3,0c-0.6-13.2-1.1-26.5-1.7-39.7
		c-0.3-6.3-0.5-12.6-0.8-18.9c-0.1-3.2,0.9-8.6-2.7-10.4c-0.6-0.3-1.3-0.2-1.8,0.2c-0.2,0.1-0.3,0.3-0.5,0.4
		C305.6,36.5,307.7,38.6,309.2,37.3L309.2,37.3z"/>
	<path class="st1" d="M315.3,103.2c18.9-2.7,38-3.3,57.1-3.7c8.8-0.2,17.5-0.5,26.3-0.1c7.2,0.3,14.4,0.6,21.1-2.6
		c1.7-0.8,0.2-3.4-1.5-2.6c-7.6,3.7-16.3,2.2-24.4,2c-9-0.2-18.1,0.3-27.1,0.4c-17.5,0.4-34.9,1.2-52.3,3.7
		C312.6,100.6,313.4,103.5,315.3,103.2L315.3,103.2z"/>
	<path class="st1" d="M428,55c25.4-0.2,50.7,0.5,76,2.1c1.9,0.1,1.9-2.9,0-3c-25.3-1.5-50.6-2.2-76-2.1C426.1,52,426.1,55,428,55
		L428,55z"/>
	<path class="st1" d="M503.5,58.5c-0.4,26.3-0.8,52.7-1.2,79c0,1.9,3,1.9,3,0c0.4-26.3,0.8-52.7,1.2-79
		C506.5,56.6,503.5,56.6,503.5,58.5L503.5,58.5z"/>
	<path class="st1" d="M401.5,97.9c1.2,3.1,1.9,6.3,2,9.6c0,1.9,3,1.9,3,0c0-3.6-0.7-7.1-2-10.4C403.7,95.3,400.8,96.1,401.5,97.9
		L401.5,97.9z"/>
	<path class="st1" d="M325.7,41.5c0.6,5,1.3,10.1,2.1,15.1c0.4,2.6,0.3,6.1,3.4,6.8c3.4,0.8,8.6-1.2,12.1-1.7c6-1,12-1.9,18.1-2.8
		c1.9-0.3,1.1-3.2-0.8-2.9c-7.6,1.2-15.2,2.4-22.8,3.6c-1.8,0.3-4.9,1.4-6.4,0c-0.8-0.7-0.8-4.5-0.9-5.5c-0.6-4.1-1.2-8.3-1.7-12.4
		C328.5,39.6,325.5,39.6,325.7,41.5L325.7,41.5z"/>
	<path class="st1" d="M330,43.5c11.2-0.8,22.4-1.5,33.7-2.2c-0.5-0.6-1-1.3-1.5-1.9c-1.6,5.9-1.6,11.7,0.2,17.6
		c0.6,1.8,3.5,1,2.9-0.8c-1.7-5.4-1.8-10.5-0.2-16c0.2-0.9-0.5-2-1.5-1.9c-11.2,0.8-22.4,1.5-33.7,2.2
		C328.1,40.6,328.1,43.6,330,43.5L330,43.5z"/>
	<path class="st1" d="M318.5,29.5c1.2,24.3,3.9,48.4,8,72.4c0.3,1.9,3.2,1.1,2.9-0.8c-4.1-23.7-6.7-47.6-7.9-71.6
		C321.4,27.6,318.4,27.6,318.5,29.5L318.5,29.5z"/>
	<path class="st1" d="M391,22.5c-0.1,15.9-0.1,31.8-0.4,47.7c-0.2,8.1-0.8,16-2.5,23.9c-0.5,2.5-0.5,6,3.1,5
		c0.6-0.2,1.1-0.8,1.1-1.4c0-1.1-0.3-1.5-1.2-2.2c-0.4-0.3-1.1-0.2-1.5,0c-0.1,0.1-0.3,0.1-0.4,0.2c-1.7,0.9-0.2,3.5,1.5,2.6
		c-0.5-0.2-0.9-0.4-1.4-0.7c0.4-0.5,0.7-1,1.1-1.4c2.1-0.6,2.6-13.6,2.8-15.7c0.5-6.3,0.5-12.6,0.5-19c0.1-13,0.2-26.1,0.3-39.2
		C394,20.6,391,20.6,391,22.5L391,22.5z"/>
	<path class="st1" d="M395,47.9c7.7,0.5,15.4,0.2,23-0.8c1.9-0.2,1.9-3.2,0-3c-7.7,1-15.3,1.3-23,0.8
		C393.1,44.8,393.1,47.8,395,47.9L395,47.9z"/>
	<path class="st1" d="M393.4,79c6.4-2.3,12.9-3.2,19.6-2.6c1.9,0.2,1.9-2.8,0-3c-7-0.6-13.8,0.3-20.4,2.7
		C390.8,76.8,391.6,79.7,393.4,79L393.4,79z"/>
	<path class="st1" d="M431,73c3.3,0,6.7,0,10,0c1.9,0,1.9-3,0-3c-3.3,0-6.7,0-10,0C429.1,70,429.1,73,431,73L431,73z"/>
	<path class="st1" d="M465,74.1c6.3-0.7,12.7-1.4,19-2.1c1.9-0.2,1.9-3.2,0-3c-6.3,0.7-12.7,1.4-19,2.1
		C463.1,71.3,463.1,74.3,465,74.1L465,74.1z"/>
	<path class="st1" d="M450,82c7.7,0,15.3,0,23,0c1.9,0,1.9-3,0-3c-7.7,0-15.3,0-23,0C448.1,79,448.1,82,450,82L450,82z"/>
	<path class="st1" d="M484.5,82.1c2.7-0.9,5.4-1.2,8.2-0.8c1.9,0.3,2.7-2.6,0.8-2.9c-3.4-0.4-6.6-0.2-9.8,0.8
		C481.8,79.8,482.6,82.7,484.5,82.1L484.5,82.1z"/>
	<path class="st1" d="M452,91.5c10-0.7,20-0.8,30-0.3c1.9,0.1,1.9-2.9,0-3c-10-0.4-20-0.3-30,0.3C450,88.6,450,91.6,452,91.5
		L452,91.5z"/>
	<path class="st1" d="M478,102c4.7-0.4,9.3-0.8,14-1.1c1.9-0.2,1.9-3.2,0-3c-4.7,0.4-9.3,0.8-14,1.1C476.1,99.2,476.1,102.2,478,102
		L478,102z"/>
	<path class="st1" d="M725,200.3c0-0.1,0.1-0.2,0.1-0.3c-0.6,0.4-1.2,0.7-1.8,1.1c0.1,0,0.3,0.1,0.4,0.1c-0.3-0.6-0.7-1.2-1-1.9
		c-0.3,1.3-5,3.8-6.1,4.5c-1.6,1.1-3.1,2.3-4.7,3.4c-3.4,2.5-6.8,4.9-10.1,7.4c-7,5.1-14,10.3-21.1,15.3c-1.6,1.1-0.1,3.7,1.5,2.6
		c8.4-6,16.7-12.1,25-18.2c4.2-3,8.3-6.1,12.5-9.1c1.8-1.3,5.4-2.8,5.9-5.2c0.2-0.8-0.2-1.6-1-1.9c-0.1,0-0.3-0.1-0.4-0.1
		c-0.8-0.2-1.6,0.3-1.8,1.1c0,0.1-0.1,0.2-0.1,0.3C721.5,201.3,724.4,202.1,725,200.3L725,200.3z"/>
	<path class="st1" d="M678.2,235.2c9.1,7.5,18,15.4,26.6,23.4c1.4,1.3,3.5-0.8,2.1-2.1c-8.7-8.1-17.5-15.9-26.6-23.4
		C678.9,231.8,676.8,233.9,678.2,235.2L678.2,235.2z"/>
	<path class="st1" d="M725.2,200.2c6.3,6.3,12.7,12.6,19,18.9c1.4,1.4,3.5-0.8,2.1-2.1c-6.3-6.3-12.7-12.6-19-18.9
		C726,196.8,723.9,198.9,725.2,200.2L725.2,200.2z"/>
	<path class="st1" d="M749.8,219.5c-6.7,4.8-13.5,9.7-20.2,14.5c-3.2,2.3-6.5,4.6-9.7,7c-2.1,1.5-8.5,7.7-11.4,6.3
		c-1.7-0.8-3.3,1.8-1.5,2.6c2.2,1.1,3.9,0.7,6.1-0.4c4.4-2.3,8.4-5.9,12.4-8.8c8.6-6.2,17.2-12.4,25.9-18.6
		C752.8,221,751.3,218.4,749.8,219.5L749.8,219.5z"/>
	<path class="st1" d="M687.4,226.5c6.2,8.8,13.9,16.2,23,22.1c1.6,1.1,3.1-1.5,1.5-2.6c-8.6-5.6-16-12.6-21.9-21
		C688.9,223.4,686.3,224.9,687.4,226.5L687.4,226.5z"/>
	<path class="st1" d="M723.1,214.1c3.4,1.9,6.1,4.5,8.1,7.9c1,1.6,3.6,0.1,2.6-1.5c-2.2-3.8-5.4-6.8-9.2-8.9
		C722.9,210.6,721.4,213.2,723.1,214.1L723.1,214.1z"/>
	<path class="st1" d="M691.5,239.5c-1.3,4.1,4.7,7.6,7.6,4.3c0.7-0.8,0.5-1.8-0.3-2.4c-1.6-1-3.1-2.1-4.7-3.1
		c-1.6-1.1-3.1,1.5-1.5,2.6c1.6,1,3.1,2.1,4.7,3.1c-0.1-0.8-0.2-1.6-0.3-2.4c-0.8,1-3-0.1-2.5-1.4
		C695,238.4,692.1,237.7,691.5,239.5L691.5,239.5z"/>
	<path class="st1" d="M723.9,123.8c-8.1,16.7,2.8,32.9,14.2,44.7c1.3,1.4,3.5-0.7,2.1-2.1c-10.3-10.7-21.2-25.7-13.8-41
		C727.3,123.6,724.7,122.1,723.9,123.8L723.9,123.8z"/>
	<path class="st1" d="M729,123.4c11-0.9,22-1.1,33-0.5c1.9,0.1,1.9-2.9,0-3c-11-0.5-22-0.4-33,0.5
		C727.1,120.6,727.1,123.6,729,123.4L729,123.4z"/>
	<path class="st1" d="M770.9,124.2c-3.2,14.4-8.7,27.9-16.5,40.4c-1,1.6,1.6,3.1,2.6,1.5c7.9-12.7,13.5-26.5,16.8-41.1
		C774.2,123.1,771.3,122.3,770.9,124.2L770.9,124.2z"/>
	<path class="st1" d="M747.9,88.9c9.7-6.7,19.2,1.8,22.6,10.8c0.3,0.9,1.3,1.4,2.2,0.9c13.6-7.4,16.6-26.2,4.7-36.7
		c-12-10.6-30.3-5.1-36,9.5c-0.7,1.8,2.2,2.6,2.9,0.8c5.1-13.2,21.8-17.1,32-7.2c9.5,9.3,6.2,24.9-5.1,31c0.7,0.3,1.5,0.6,2.2,0.9
		c-4.1-10.7-15.7-20.4-27-12.6C744.8,87.4,746.3,90,747.9,88.9L747.9,88.9z"/>
	<path class="st1" d="M739.9,79.6c1.1-1.2,5.7,8.4,6,9.2c0.9,2.9,1.2,6,1.1,9.1c-0.2,7-3,13.7-6.1,19.8c-0.9,1.7,1.7,3.2,2.6,1.5
		c4.5-8.8,7.9-18.4,6-28.4c-0.6-3.3-6.5-19-11.7-13.4C736.5,78.8,738.6,81,739.9,79.6L739.9,79.6z"/>
	<path class="st1" d="M746.5,83.3c4-8.7,14.6-10.6,21.4-3.7c1.3,1.4,3.5-0.7,2.1-2.1c-8-8.2-21.2-6.2-26.1,4.3
		C743.1,83.6,745.7,85.1,746.5,83.3L746.5,83.3z"/>
	<path class="st1" d="M736.4,81.2c-2.6-12.9-17.6-18-28.5-11.8c-13.5,7.7-15.1,24.6-10.1,37.9c0.7,1.8,3.6,1,2.9-0.8
		c-4-10.9-4-24.1,5.5-32.3c9.1-7.9,24.7-5.2,27.3,7.7C733.9,83.8,736.8,83.1,736.4,81.2L736.4,81.2z"/>
	<path class="st1" d="M704.1,104.6c3.7-4.6,9.1-6.1,14.8-6.4c4.9-0.3,10.3,1,15-1c7.5-3.2,8.4-12.6,8.5-19.7c0-1.9-3-1.9-3,0
		c-0.1,4.4-0.3,9.5-2.7,13.4c-3.5,5.5-10.2,4.1-15.7,4.2c-7.1,0.1-14.4,1.5-19,7.3C700.8,103.9,702.9,106.1,704.1,104.6L704.1,104.6
		z"/>
	<path class="st1" d="M732.6,84c1.9-0.5,3.1-2.4,2.1-4.3c-1.3-2.3-5.1-2.3-7.3-2.3c-7.6,0.2-14.4,4.2-18.6,10.5
		c-1.1,1.6,1.5,3.1,2.6,1.5c2.1-3.2,4.9-5.7,8.4-7.3c1.5-0.7,3.1-1.2,4.7-1.5c1.2-0.2,2.4-0.3,3.6-0.3c1.3,0,2.5,0.2,3.8,0.8
		C730,81.6,730.8,84.5,732.6,84L732.6,84z"/>
	<path class="st1" d="M752,88.4c1.3,10.6-0.6,20.9-5.5,30.3c-0.9,1.7,1.7,3.2,2.6,1.5c5.2-9.9,7.3-20.7,6-31.8
		C754.8,86.5,751.8,86.5,752,88.4L752,88.4z"/>
	<path class="st1" d="M346.1,224.2c-3.6,13.2-7.3,26.5-10.9,39.8c-0.5,1.9,2.4,2.7,2.9,0.8c3.6-13.2,7.3-26.5,10.9-39.8
		C349.5,223.2,346.6,222.4,346.1,224.2L346.1,224.2z"/>
	<path class="st1" d="M349,227.5c43.4,0.8,86.8-0.5,130-3.9c1.9-0.1,1.9-3.1,0-3c-43.3,3.3-86.7,4.6-130,3.9
		C347.1,224.4,347.1,227.4,349,227.5L349,227.5z"/>
	<path class="st1" d="M477.8,222.8c1.8,7.1,2.3,14.3,1.6,21.6c-0.2,1.9,2.8,1.9,3,0c0.7-7.6,0.1-15.1-1.8-22.4
		C480.2,220.2,477.3,221,477.8,222.8L477.8,222.8z"/>
	<path class="st1" d="M341.1,269.3c49.7,4.1,99.6,3,149.1-3.4c1.9-0.2,1.9-3.2,0-3c-49.4,6.4-99.4,7.5-149.1,3.4
		C339.1,266.2,339.1,269.2,341.1,269.3L341.1,269.3z"/>
	<path class="st1" d="M478.9,245.4c0.7,5.4,1.4,10.7,2.2,16.1c0.2,1.9,3.3,1.9,3,0c-0.7-5.4-1.4-10.7-2.2-16.1
		C481.6,243.6,478.6,243.5,478.9,245.4L478.9,245.4z"/>
	<path class="st1" d="M520.2,237.3c1.2-2.4-0.6-4.7-3.4-4c-3.9,0.9-7.1,6.2-8.5,9.6c-3.8,9.2,0.1,20.1,9.4,24.2
		c8.1,3.5,18.2-0.3,21.7-8.6c4.3-10.3-3.6-20.6-11.7-26.1c-1.6-1.1-3.1,1.5-1.5,2.6c5.4,3.6,10.8,9.3,11.4,16.2
		c0.6,7.3-5.2,13.6-12.4,14.2c-6.8,0.5-13-4.6-14.8-11c-0.8-3-0.6-6.2,0.3-9.2c0.7-2,1.8-4.1,3.1-5.7c1-1.2,3.2-2.4,3.8-3.7
		C516.7,237.5,519.3,239,520.2,237.3L520.2,237.3z"/>
	<path class="st1" d="M502.2,157.1c14.7,6.1,32.7,20.6,23.5,38.6c-1.7,3.3-4.1,6.2-6.9,8.8c-2.1,2-4.6,3.7-5.9,6.3
		c-2.8,5.7,0.8,11.8,4,16.4c1.1,1.6,3.7,0.1,2.6-1.5c-3.9-5.7-6.9-11.3-1-17c2.4-2.3,4.8-4.3,6.8-7c4-5.2,6.3-11.5,5.5-18.1
		c-1.7-15.1-15.1-24-27.9-29.4C501.2,153.4,500.4,156.3,502.2,157.1L502.2,157.1z"/>
	<path class="st1" d="M352,239.3c35.3-0.5,70.7-0.3,106,0.5c1.9,0,1.9-3,0-3c-35.3-0.8-70.7-0.9-106-0.5
		C350.1,236.3,350.1,239.3,352,239.3L352,239.3z"/>
	<path class="st1" d="M350,246c35.6,2,71.3,2.6,107,1.9c1.9,0,1.9-3,0-3c-35.7,0.7-71.4,0.1-107-1.9
		C348.1,242.9,348.1,245.9,350,246L350,246z"/>
	<path class="st1" d="M347,256.3c37,2.2,74.1,1.9,111-0.9c1.9-0.1,1.9-3.1,0-3c-36.9,2.8-74,3.1-111,0.9
		C345.1,253.2,345.1,256.2,347,256.3L347,256.3z"/>
	<path class="st1" d="M362,228.9c-5.8,10.4-9.5,21.7-10.9,33.6c-0.2,1.9,2.8,1.9,3,0c1.3-11.3,4.9-22.1,10.4-32
		C365.5,228.8,363,227.2,362,228.9L362,228.9z"/>
	<path class="st1" d="M370.8,230.1c-2.7,10.9-6.1,21.5-10.3,31.9c-0.7,1.8,2.2,2.6,2.9,0.8c4.1-10.4,7.5-21.1,10.3-31.9
		C374.1,229.1,371.2,228.3,370.8,230.1L370.8,230.1z"/>
	<path class="st1" d="M380.8,231.2c-3.1,10.6-6.2,21.3-9.3,31.9c-0.5,1.9,2.4,2.6,2.9,0.8c3.1-10.6,6.2-21.3,9.3-31.9
		C384.2,230.1,381.4,229.3,380.8,231.2L380.8,231.2z"/>
	<path class="st1" d="M394.3,228c-4.4,12.6-8.3,25.3-11.8,38.1c-0.5,1.9,2.4,2.7,2.9,0.8c3.5-12.8,7.4-25.5,11.8-38.1
		C397.8,227,394.9,226.2,394.3,228L394.3,228z"/>
	<path class="st1" d="M403.2,233.2c-2.9,13-5.7,25.9-8.6,38.9c-0.4,1.9,2.5,2.7,2.9,0.8c2.9-13,5.7-25.9,8.6-38.9
		C406.5,232.2,403.7,231.4,403.2,233.2L403.2,233.2z"/>
	<path class="st1" d="M415.3,228c-3,12.3-6,24.7-9,37c-0.5,1.9,2.4,2.7,2.9,0.8c3-12.3,6-24.7,9-37C418.6,227,415.7,226.2,415.3,228
		L415.3,228z"/>
	<path class="st1" d="M427.9,228.2c-2.4,13.1-5.3,26-8.7,38.9c-0.5,1.9,2.4,2.7,2.9,0.8c3.4-12.8,6.3-25.8,8.7-38.9
		C431.1,227.1,428.2,226.3,427.9,228.2L427.9,228.2z"/>
	<path class="st1" d="M441.7,228.1c-3.4,13-6.9,25.9-10.3,38.9c-0.5,1.9,2.4,2.7,2.9,0.8c3.4-13,6.9-25.9,10.3-38.9
		C445.1,227.1,442.2,226.3,441.7,228.1L441.7,228.1z"/>
	<path class="st1" d="M451.6,228.5c-0.9,12.6-3.7,24.8-8.1,36.6c-0.7,1.8,2.2,2.6,2.9,0.8c4.6-12,7.3-24.5,8.2-37.4
		C454.8,226.6,451.8,226.6,451.6,228.5L451.6,228.5z"/>
	<path class="st1" d="M460.8,229.1c-1.7,12.3-3.5,24.6-5.2,37c-0.3,1.9,2.6,2.7,2.9,0.8c1.7-12.3,3.5-24.6,5.2-37
		C463.9,228,461,227.2,460.8,229.1L460.8,229.1z"/>
	<path class="st1" d="M469.4,237.1c-3.9-0.9-7.9-0.9-11.8,0.1c-1.9,0.4-1.1,3.4,0.8,2.9c3.4-0.8,6.8-0.9,10.2-0.1
		C470.5,240.4,471.3,237.5,469.4,237.1L469.4,237.1z"/>
	<path class="st1" d="M470.6,243c-5.5,1.3-11,1.9-16.6,2.1c-1.9,0-1.9,3,0,3c5.9-0.1,11.6-0.9,17.4-2.2
		C473.3,245.4,472.5,242.5,470.6,243L470.6,243z"/>
	<path class="st1" d="M469.8,256.8c1.3-0.8,1.8-1.5,2.3-2.9c0.3-0.9-0.5-1.9-1.5-1.9c-5.2,0.1-10.5,0.1-15.7,0.2c-1.9,0-1.9,3,0,3
		c5.2-0.1,10.5-0.1,15.7-0.2c-0.5-0.6-1-1.3-1.5-1.9c-0.3,0.4-0.6,0.7-1,1.1C466.6,255.2,468.1,257.8,469.8,256.8L469.8,256.8z"/>
	<path class="st1" d="M407.4,219c-5.5-5.3-10.4-11-6.6-18.8c1.9-3.9,3.4-7.6,2.1-12c-0.5-1.9-3.4-1.1-2.9,0.8
		c1.9,6.6-4.4,11.2-3.9,17.6c0.5,6.1,4.9,10.6,9.1,14.6C406.6,222.4,408.8,220.3,407.4,219L407.4,219z"/>
	<path class="st1" d="M321.4,158.3c-2.5,7.4-5,14.7-7.5,22.1c-0.3,1,0.5,1.9,1.5,1.9c59,1.8,118,0.4,176.8-4.2
		c1.4-0.1,1.9-1.5,1.1-2.6c-4.8-6.1-8.8-12.7-12-19.8c-0.8-1.8-3.4-0.2-2.6,1.5c3.4,7.3,7.5,14,12.5,20.4c0.4-0.9,0.7-1.7,1.1-2.6
		c-58.8,4.6-117.9,6.1-176.8,4.2c0.5,0.6,1,1.3,1.5,1.9c2.5-7.4,5-14.7,7.5-22.1C324.9,157.3,322,156.5,321.4,158.3L321.4,158.3z"/>
	<path class="st1" d="M520.5,241.4c0.2,1.3,0.1,2.6-0.2,3.9c-0.5,1.9,2.3,2.6,2.9,0.8c0.5-1.8,0.6-3.7,0.2-5.5
		C523.1,238.7,520.2,239.5,520.5,241.4L520.5,241.4z"/>
	<path class="st1" d="M105.5,25.5c-11.2,4-14.8,20.2-14.3,30.8C92,70.2,104,78.3,116.6,81c12.9,2.7,27.3-0.3,35.8-10.9
		c7.3-9.2,9.1-22.2,2.3-32.2C145.1,23.9,127.5,21.6,112,20c-1.9-0.2-1.9,2.8,0,3c14.5,1.5,31.8,3.6,40.5,17
		c8,12.4,1.3,28.9-11.1,35.4c-12.6,6.6-31.5,4.3-41.6-6.1c-6.1-6.3-6.3-14.9-4.6-23c1.4-6.8,3.9-15.2,11.1-17.8
		C108.1,27.8,107.4,24.9,105.5,25.5L105.5,25.5z"/>
	<path class="st1" d="M117.4,36.5c0.4,6.7,0.3,13.4-0.4,20c-0.2,1.9,2.8,1.9,3,0c0.6-6.7,0.7-13.3,0.4-20
		C120.3,34.6,117.3,34.6,117.4,36.5L117.4,36.5z"/>
	<path class="st1" d="M118.5,59.2c4.5,2.2,9.1,3.8,14,4.8c1.9,0.4,2.7-2.5,0.8-2.9c-4.6-1-9-2.5-13.3-4.5
		C118.3,55.7,116.8,58.3,118.5,59.2L118.5,59.2z"/>
</g>
<g id="Layer_8">
	<g>
		<g>
			<g class="st2">
				
					<rect x="146.5" y="111.1" transform="matrix(0.9636 -0.2675 0.2675 0.9636 -38.7627 57.7312)" class="st1" width="92" height="120"/>
				
					<rect x="146.5" y="111.1" transform="matrix(0.9636 -0.2675 0.2675 0.9636 -38.7627 57.7312)" class="st3" width="92" height="120"/>
			</g>
			<g>
				
					<rect x="150.5" y="107.1" transform="matrix(0.9636 -0.2675 0.2675 0.9636 -37.5469 58.6553)" class="st4" width="92" height="120"/>
				
					<rect x="150.5" y="107.1" transform="matrix(0.9636 -0.2675 0.2675 0.9636 -37.5469 58.6553)" class="st3" width="92" height="120"/>
			</g>
		</g>
		<g class="st5">
			<path class="st6" d="M221.2,178.1c-2,5-4.4,10.1-8.6,14.6c-0.6,0.6-1.1,1.1-1.8,1.6c-0.6,0.5-1.3,1-2,1.4
				c-1.5,0.9-3.1,1.6-4.8,1.8c-1.7,0.3-3.5,0.2-5.1-0.1s-3-1-4.3-1.6c-2.5-1.3-4.5-2.9-6.5-4c-1.9-1.1-3.7-1.4-5.5-0.6
				c-1.8,0.8-3.2,2.9-4.2,5.1c-1,2.2-1.7,4.7-2.2,7.2c0-2.5,0.1-5.1,0.6-7.7c0.3-1.3,0.7-2.6,1.3-3.8c0.6-1.2,1.5-2.5,2.7-3.4
				c1.2-1,2.8-1.6,4.4-1.7c1.6-0.1,3.2,0.2,4.5,0.6c2.7,0.9,5,2.1,7.1,2.7c2.1,0.7,3.9,0.7,5.3,0.1c1.4-0.6,2.7-1.7,3.8-3.4
				c1.1-1.6,2.1-3.6,2.8-5.7c0.8-2.1,1.4-4.3,2-6.6L221.2,178.1z"/>
		</g>
		<line class="st7" x1="152.5" y1="135.8" x2="201.6" y2="122.1"/>
		<line class="st8" x1="156.8" y1="151.2" x2="190.5" y2="141.8"/>
		<rect x="160.3" y="148" transform="matrix(0.9636 -0.2675 0.2675 0.9636 -35.6521 57.2499)" class="st9" width="64" height="23"/>
		<g>
			<polyline class="st6" points="217.7,165.4 210.5,174.6 221,178.6 226.2,172.1 			"/>
			
				<rect x="210" y="135.5" transform="matrix(0.6175 -0.7866 0.7866 0.6175 -21.1712 244.8635)" class="st10" width="62.4" height="17.5"/>
			<path class="st10" d="M255.5,115.8l1-1.3c0.8-1.1,2.4-1.2,3.4-0.4l6,4.7c1.1,0.8,1.2,2.4,0.4,3.4l-1,1.3L255.5,115.8z"/>
		</g>
	</g>
	<g>
		<g>
			<g class="st2">
				<path class="st11" d="M468,138H348V48c0-1.1,0.9-2,2-2h116c1.1,0,2,0.9,2,2V138z"/>
				<path class="st12" d="M468,138H348V48c0-1.1,0.9-2,2-2h116c1.1,0,2,0.9,2,2V138z"/>
			</g>
			<g>
				<path class="st4" d="M470,136H350V46c0-1.1,0.9-2,2-2h116c1.1,0,2,0.9,2,2V136z"/>
				<path class="st3" d="M470,136H350V46c0-1.1,0.9-2,2-2h116c1.1,0,2,0.9,2,2V136z"/>
			</g>
		</g>
		<rect x="350" y="55" class="st1" width="120" height="2"/>
		<circle class="st6" cx="356" cy="50" r="2"/>
		<circle class="st6" cx="362" cy="50" r="2"/>
		<circle class="st6" cx="368" cy="50" r="2"/>
		<rect x="362" y="66" class="st6" width="44" height="3"/>
		<rect x="362" y="73" class="st13" width="29" height="3"/>
		<rect x="384" y="80" class="st6" width="40" height="3"/>
		<rect x="396" y="73" class="st9" width="18" height="3"/>
		<rect x="418" y="73" class="st6" width="8" height="3"/>
		<rect x="362" y="87" class="st6" width="12" height="3"/>
		<rect x="378" y="87" class="st6" width="16" height="3"/>
		<rect x="381" y="94" class="st13" width="24" height="3"/>
		<rect x="409" y="94" class="st6" width="24" height="3"/>
		<rect x="374" y="101" class="st6" width="32" height="3"/>
		<rect x="362" y="108" class="st6" width="29" height="3"/>
		<rect x="384" y="115" class="st9" width="40" height="3"/>
		<rect x="396" y="108" class="st6" width="18" height="3"/>
		<rect x="418" y="108" class="st6" width="8" height="3"/>
		<rect x="402" y="122" class="st6" width="12" height="3"/>
		<rect x="418" y="122" class="st6" width="16" height="3"/>
	</g>
	<g>
		<g>
			<g class="st2">
				
					<rect x="563" y="111.5" transform="matrix(0.1674 -0.9859 0.9859 0.1674 363.438 745.328)" class="st11" width="120" height="92"/>
				
					<rect x="563" y="111.5" transform="matrix(0.1674 -0.9859 0.9859 0.1674 363.438 745.328)" class="st12" width="120" height="92"/>
			</g>
			<g>
				
					<rect x="559" y="107.5" transform="matrix(0.1674 -0.9859 0.9859 0.1674 364.0511 738.0541)" class="st4" width="120" height="92"/>
				
					<rect x="559" y="107.5" transform="matrix(0.1674 -0.9859 0.9859 0.1674 364.0511 738.0541)" class="st3" width="120" height="92"/>
			</g>
		</g>
		
			<rect x="592.3" y="105.1" transform="matrix(0.1674 -0.9859 0.9859 0.1674 388.0972 688.6722)" class="st14" width="19" height="19"/>
		
			<rect x="624.7" y="145.1" transform="matrix(0.1674 -0.9859 0.9859 0.1674 383.4708 763.3369)" class="st15" width="38" height="19"/>
		<circle class="st16" cx="607.3" cy="150.5" r="7"/>
		<polygon class="st17" points="593.8,193.1 608,176 615.7,196.8 		"/>
		<g class="st5">
			<path class="st4" d="M614.2,116.2c0,0,27.5-12.6,33,14.7"/>
			<g>
				<path class="st18" d="M614.2,116.2c0,0,23.9-10.9,31.6,9.8"/>
				<g>
					<polygon class="st6" points="642,126 647.2,130.9 648.8,123.9 					"/>
				</g>
			</g>
		</g>
		<g class="st5">
			<path class="st4" d="M598,127.6c0,0-24.4,30,0,53.8"/>
			<g>
				<path class="st18" d="M598,127.6c0,0-21.8,26.9-3.5,49.9"/>
				<g>
					<polygon class="st6" points="591.2,179.1 598,181.4 596.6,174.4 					"/>
				</g>
			</g>
		</g>
		<g class="st5">
			<path class="st4" d="M614.8,184.2c0,0,12.5-11.6,3.2-24.8"/>
			<g>
				<path class="st18" d="M614.8,184.2c0,0,9.8-9,5.6-20.2"/>
				<g>
					<polygon class="st6" points="624,163.4 618,159.4 617.6,166.6 					"/>
				</g>
			</g>
		</g>
	</g>
</g>
</svg>
