<?xml version="1.0" encoding="utf-8"?>
<!-- Generator: Adobe Illustrator 23.0.0, SVG Export Plug-In . SVG Version: 6.00 Build 0)  -->
<svg version="1.1" id="Layer_1" xmlns="http://www.w3.org/2000/svg" xmlns:xlink="http://www.w3.org/1999/xlink" x="0px" y="0px"
	 viewBox="0 0 275.2 160" style="enable-background:new 0 0 275.2 160;" xml:space="preserve">
<style type="text/css">
	.st0{fill:#0FF7AA;}
	.st1{fill:#FFDB17;}
	.st2{opacity:0.2;}
	.st3{fill:#2470DF;}
	.st4{fill:#D9E7FF;stroke:#2470DF;stroke-width:2;stroke-linecap:round;stroke-linejoin:round;stroke-miterlimit:10;}
	.st5{fill:#FFFFFF;stroke:#2470DF;stroke-width:2;stroke-linecap:round;stroke-linejoin:round;stroke-miterlimit:10;}
	.st6{fill:none;stroke:#2470DF;stroke-width:2;stroke-linecap:round;stroke-linejoin:round;stroke-miterlimit:10;}
</style>
<path class="st0" d="M129.5,126.9c-4.6,4.3-8.5,9.3-11.4,14.9c-0.9,1.7,1.7,3.2,2.6,1.5c2.8-5.4,6.5-10.1,11-14.3
	C133.1,127.7,130.9,125.6,129.5,126.9L129.5,126.9z"/>
<path class="st1" d="M121.7,90c4.4-1.6,8.8-3.2,13.1-4.8c1.8-0.7,1-3.6-0.8-2.9c-4.4,1.6-8.8,3.2-13.1,4.8
	C119.1,87.8,119.9,90.7,121.7,90L121.7,90z"/>
<g class="st2">
	<path class="st3" d="M98.7,103.5c2-1.3,3.9-2.5,5.9-3.8c1.6-1,0.1-3.6-1.5-2.6c-2,1.3-3.9,2.5-5.9,3.8
		C95.6,102,97.1,104.6,98.7,103.5L98.7,103.5z"/>
	<path class="st3" d="M166.5,107c-9.9,12.1-17.9,25.4-24.1,39.7c-0.8,1.8,1.8,3.3,2.6,1.5c6-14.1,13.9-27.2,23.6-39.1
		C169.8,107.6,167.7,105.5,166.5,107L166.5,107z"/>
	<path class="st3" d="M54.9,160c10.9-0.1,21.9-2.7,31.3-8.2c6.8-4,12-9.8,17.1-15.8c14.8-17.3,32.7-30.8,53.8-39.7
		c1.8-0.8,0.2-3.3-1.5-2.6c-19.5,8.3-37.2,20.5-51.2,36.4c-5.3,6-10.1,12.5-16.7,17.1c-9.4,6.7-21.3,9.7-32.8,9.8
		C53,157,53,160,54.9,160L54.9,160z"/>
	<path class="st3" d="M39.1,152.4c4.9-3.8,11-10.3,7.2-16.9c-3.4-5.9-11.8-7.9-16.8-2.9c-4.8,4.8-4.6,12.4-0.6,17.6
		c4.9,6.3,13.1,8.4,20.6,9.4c1.9,0.2,1.9-2.8,0-3c-7.9-1-20.9-4.7-20.7-14.9c0.1-6.6,6.7-11.6,12.5-7.1c6.4,4.9,0.9,11.6-3.8,15.2
		C36.1,151,37.6,153.6,39.1,152.4L39.1,152.4z"/>
	<path class="st3" d="M10.4,149.3c3.7,3.6,8.1,6.5,13.2,7.3c1.9,0.3,2.7-2.6,0.8-2.9c-4.7-0.8-8.6-3.2-11.9-6.6
		C11.2,145.9,9.1,148,10.4,149.3L10.4,149.3z"/>
	<path class="st3" d="M0,129c0.9,4,2.2,7.8,4.1,11.4c0.9,1.7,3.5,0.2,2.6-1.5c-1.7-3.4-2.9-7-3.8-10.7C2.5,126.3-0.4,127.1,0,129
		L0,129z"/>
</g>
<polygon class="st4" points="176.4,86.9 218.8,49.1 169.4,61.9 "/>
<polygon class="st5" points="142.9,41.4 274.2,1 204.4,79.3 177.1,64.2 176.4,86.9 162.7,55.2 "/>
<polyline class="st6" points="162.7,55.2 253.2,12.2 177.1,64.2 "/>
</svg>
