<?xml version="1.0" encoding="utf-8"?>
<!-- Generator: Adobe Illustrator 23.0.0, SVG Export Plug-In . SVG Version: 6.00 Build 0)  -->
<svg version="1.1" id="Layer_1" xmlns="http://www.w3.org/2000/svg" xmlns:xlink="http://www.w3.org/1999/xlink" x="0px" y="0px"
	 viewBox="0 0 275.2 160" style="enable-background:new 0 0 275.2 160;" xml:space="preserve">
<style type="text/css">
	.st0{fill:#0FF7AA;}
	.st1{fill:#FFDB17;}
	.st2{opacity:0.2;}
	.st3{fill:#2470DF;}
	.st4{fill:#D9E7FF;stroke:#2470DF;stroke-width:2;stroke-linecap:round;stroke-linejoin:round;stroke-miterlimit:10;}
	.st5{fill:#FFFFFF;stroke:#2470DF;stroke-width:2;stroke-linecap:round;stroke-linejoin:round;stroke-miterlimit:10;}
	.st6{fill:none;stroke:#2470DF;stroke-width:2;stroke-linecap:round;stroke-linejoin:round;stroke-miterlimit:10;}
</style>
<path class="st0" d="M144.7,126.9c-1.4-1.3-3.6,0.8-2.2,2.1c4.5,4.2,8.2,8.9,11,14.3c0.9,1.7,3.5,0.2,2.6-1.5
	C153.2,136.2,149.3,131.2,144.7,126.9L144.7,126.9z"/>
<path class="st1" d="M152.5,90c1.8,0.7,2.6-2.2,0.8-2.9c-4.3-1.6-8.7-3.2-13.1-4.8c-1.8-0.7-2.6,2.2-0.8,2.9
	C143.7,86.8,148.1,88.4,152.5,90L152.5,90z"/>
<g class="st2">
	<path class="st3" d="M175.5,103.5c1.6,1.1,3.1-1.5,1.5-2.6c-2-1.3-3.9-2.5-5.9-3.8c-1.6-1-3.1,1.6-1.5,2.6
		C171.6,101,173.5,102.2,175.5,103.5L175.5,103.5z"/>
	<path class="st3" d="M107.7,107c-1.2-1.5-3.3,0.6-2.1,2.1c9.7,11.9,17.6,25,23.6,39.1c0.8,1.8,3.4,0.3,2.6-1.5
		C125.6,132.4,117.6,119.1,107.7,107L107.7,107z"/>
	<path class="st3" d="M219.3,160c1.9,0,1.9-3,0-3c-11.5-0.1-23.4-3.1-32.8-9.8c-6.6-4.6-11.4-11.1-16.7-17.1
		c-14-15.9-31.7-28.1-51.2-36.4c-1.7-0.7-3.3,1.8-1.5,2.6c21.1,8.9,39,22.4,53.8,39.7c5.1,6,10.3,11.8,17.1,15.8
		C197.4,157.3,208.4,159.9,219.3,160L219.3,160z"/>
	<path class="st3" d="M235.1,152.4c1.5,1.2,3-1.4,1.6-2.6c-4.7-3.6-10.2-10.3-3.8-15.2c5.8-4.5,12.4,0.5,12.5,7.1
		c0.2,10.2-12.8,13.9-20.7,14.9c-1.9,0.2-1.9,3.2,0,3c7.5-1,15.7-3.1,20.6-9.4c4-5.2,4.2-12.8-0.6-17.6c-5-5-13.4-3-16.8,2.9
		C224.1,142.1,230.2,148.6,235.1,152.4L235.1,152.4z"/>
	<path class="st3" d="M263.8,149.3c1.3-1.3-0.8-3.4-2.1-2.2c-3.3,3.4-7.2,5.8-11.9,6.6c-1.9,0.3-1.1,3.2,0.8,2.9
		C255.7,155.8,260.1,152.9,263.8,149.3L263.8,149.3z"/>
	<path class="st3" d="M274.2,129c0.4-1.9-2.5-2.7-2.9-0.8c-0.9,3.7-2.1,7.3-3.8,10.7c-0.9,1.7,1.7,3.2,2.6,1.5
		C272,136.8,273.3,133,274.2,129L274.2,129z"/>
</g>
<polygon class="st4" points="104.8,61.9 55.4,49.1 97.8,86.9 "/>
<polygon class="st5" points="111.5,55.2 97.8,86.9 97.1,64.2 69.8,79.3 0,1 131.3,41.4 "/>
<polyline class="st6" points="97.1,64.2 21,12.2 111.5,55.2 "/>
</svg>
