<?xml version="1.0" encoding="utf-8"?>
<!-- Generator: Adobe Illustrator 23.0.0, SVG Export Plug-In . SVG Version: 6.00 Build 0)  -->
<svg version="1.1" id="Layer_1" xmlns="http://www.w3.org/2000/svg" xmlns:xlink="http://www.w3.org/1999/xlink" x="0px" y="0px"
	 viewBox="0 0 791 259" style="enable-background:new 0 0 791 259;" xml:space="preserve">
<style type="text/css">
	.st0{opacity:0.2;}
	.st1{fill:#2470DF;}
	.st2{fill:none;stroke:#2470DF;stroke-width:2;stroke-miterlimit:10;}
	.st3{fill:#FFFFFF;stroke:#2470DF;stroke-width:2;stroke-miterlimit:10;}
	.st4{fill:#F5F9FF;stroke:#2470DF;stroke-width:2;stroke-miterlimit:10;}
	.st5{fill:#FFF4EA;stroke:#FF922B;stroke-width:2;stroke-miterlimit:10;}
	.st6{fill:none;stroke:#FFDB17;stroke-width:2;stroke-miterlimit:10;}
	.st7{fill:#FFFFFF;stroke:#FFDB17;stroke-width:2;stroke-miterlimit:10;}
	.st8{fill:#FFFFFF;stroke:#30D7FF;stroke-width:2;stroke-miterlimit:10;}
	.st9{fill:#FFFFFF;stroke:#D787FF;stroke-width:2;stroke-linejoin:round;stroke-miterlimit:10;}
	.st10{fill:none;stroke:#0FF7AA;stroke-width:2;stroke-miterlimit:10;}
	.st11{fill:#FFFFFF;stroke:#FF922B;stroke-width:2;stroke-miterlimit:10;}
	.st12{opacity:0.3;}
	.st13{fill:#2470DF;stroke:#2470DF;stroke-width:2;stroke-miterlimit:10;}
	.st14{display:none;opacity:0.2;}
	.st15{display:inline;}
</style>
<g>
	<g class="st0">
		<g>
			<g>
				<g>
					<path class="st1" d="M727.1,72c0.4-0.9,0.7-1.8,0.9-2.7c0.5-3.1,1.9-4.1,4.4-3c3.5,0.5,2.6,1.9,4.4,4.1c1,1.2,1.8,1.9,3.4,1.9
						c1.6,0,2.2-0.9,3.6-1.3c1.4-0.2,2.7-0.5,4.1-0.8c3.4,2,4.2,4.5,2.5,7.4c-0.6,1.5-1.5,2.1-0.8,3.9c0.7,1.9,2.3,2.1,3.8,2.9
						c3.2,0.7,4.4,2.4,3.6,5.1c0.6,2.3-0.3,3.9-2.7,4.7c-0.9,0.6-2,0.9-2.8,1.8c-1.5,1.7-1.5,3.3-1,5.4c0.5,2.5,1.9,5.2-0.3,7.4
						c-2.9,3-7.3,0.8-10.3-0.4c-1.8-0.8-2.5,2.2-0.8,2.9c4.2,1.8,9.5,3.4,13.2-0.3c1.1-1.2,1.9-2.7,2.2-4.3c0.5-3-2.5-6.6,0.1-9.1
						c1.6-1.5,3.6-1.8,4.9-3.9c0.9-1.5,1.3-3.4,1.1-5.2c-0.3-2.1-1.4-4.1-3.1-5.4c-0.6-0.4-1.2-0.7-1.9-1.1c-1-0.1-1.7-0.5-2.3-1.3
						c-1-0.4-1.1-1-0.3-1.6c0.2-2.2,1.6-3.3,1.1-5.8c-0.3-1.7-1.1-3.3-2.4-4.4c-1.3-1.1-3-1.8-4.7-1.9c-3.2-0.2-5.3,2.8-8.4,0.1
						c-1.2-1.1-1.4-2.6-3-3.6c-1.3-0.8-2.8-1.2-4.3-1.1c-5,0.5-5.6,4.9-7.1,8.7C723.5,73,726.4,73.8,727.1,72L727.1,72z"/>
				</g>
			</g>
			<g>
				<g>
					<path class="st1" d="M738,108.9c-2.8,2.8-0.7,11.2-7.3,8.3c-3.6-1.6-2-7.3-6.1-8.4c-1.2-0.3-2.2,0.1-3.2,0.6
						c-0.9,0.4-2,2.1-2.9,2.2c-1.8-1-3.5-2-5.3-3.1c0.2-1.5,0.6-2.9,1.3-4.2c1-2.9,1.6-5.4-0.8-7.9c-1.5-1.6-4-2-4.9-4.3
						c-1-2.4,0.5-5,2.3-6.3c0.5-0.3,1.3-0.2,1.8-0.6c2.5-1.7,1-3.7,0.1-5.8c-1.5-3.2-1.4-10.3,5.3-7.4c1,0.4,1.8,1.3,2.9,1.8
						c1.1,0.5,2.4,0.9,3.6,0.7c2.8-0.5,4.2-3.2,3.9-5.8c-0.2-1.9-3.2-1.9-3,0c-1.9,2.2-3.7,2.6-5.3,1c-0.5-0.4-1.1-0.8-1.8-1
						c-0.9-0.4-1.7-0.6-2.6-0.7c-1.6,0-3.3,0.7-4.6,1.7c-1.6,1.3-2.4,3.2-2.6,5.2c-0.1,1.4,0.1,2.8,0.7,4.1c0.2,0.6,1.7,2.2,1.6,2.7
						c-0.3,1.6-2.8,1.3-4,2.5c-1.8,1.8-1.8,4.6-1.5,7c0.2,1.5,0.5,3.1,1.5,4.3c0.7,0.8,1.5,0.9,2.2,1.6c2.4,2.4,1.9,5,1.4,8
						c-0.6,3.4-1,7.9,2.8,9.8c1.7,0.8,3.5,0.6,5.1-0.1c0.9-0.4,1.9-1.6,2.8-1.8c3-0.8,3.4,0.7,4.2,2.8c1.4,3.8,5.1,5.1,9,4.6
						c1.8-0.2,3.8-0.9,4.9-2.4c1.3-1.8-0.5-5.8,0.7-7C741.5,109.6,739.4,107.5,738,108.9L738,108.9z"/>
				</g>
			</g>
			<g>
				<g>
					<path class="st1" d="M727.6,83.1c-4.3,3-4.6,9.9-2.8,14.4c2,4.9,9.2,3.4,12.7,1.1c4-2.7,5.6-8.3,3.3-12.6
						c-2.3-4.3-7.9-5.4-11.5-2c-1.4,1.3,0.7,3.4,2.1,2.1c2.8-2.7,6.7-0.3,7.3,3.1c0.6,3-1.1,6-3.8,7.3c-2.6,1.3-6.8,2.2-7.8-1.4
						c-0.8-2.8-0.8-7.6,1.9-9.4C730.7,84.6,729.2,82,727.6,83.1L727.6,83.1z"/>
				</g>
			</g>
		</g>
		<g>
			<g>
				<g>
					<path class="st1" d="M692.2,45c1.4-2.1,0.7-2.5,3.6-1.8c4.5,1,0.8,0.2,2.6,2.1c0.9,1,0.7,1.8,2.3,2.2c3.1,0.9,2-1.9,4.5,2.2
						c2.4,3.8,0.3,2.1,0.2,5c0,1.1,0.5,1.5,1.1,2.5c1.3,2.5,1.8-2.7,0.6,4c-1.1,6.1,0.1,1.4-2.2,3.7c-1.4,1.3-1.4,1.1-2.2,3
						c-0.2,0.6,0.3,1.4,0,1.9c-3.1,5.9-5.2,4-7.9,2c-1.6-1.1-3.1,1.5-1.5,2.6c2.6,1.9,5.9,3.9,9.2,2.2c3.8-1.9,2.2-5.3,4-8.1
						c1.7-2.6,5.4-2.4,6.1-6.3c0.2-1.2,0-2.5-0.5-3.6c-0.6-1.3-2.5-2-3-3.1c-1-2,2.4-5,1.1-8c-1.3-2.9-3.7-3.1-6.4-3.4
						c-2.5-0.3-2.5-1.2-3.8-3.1c-1-1.5-2.3-2.3-4.1-2.5c-3.5-0.3-4.8,2.5-6.4,5.1C688.5,45.1,691.2,46.6,692.2,45L692.2,45z"/>
				</g>
			</g>
			<g>
				<g>
					<path class="st1" d="M692.8,71.8c-0.6,0.5-1.1,2.2-1.5,2.4c-0.1,2-1.9,2-5.2,0c0.1-0.6,0.1-1.2,0-1.7c-0.6-1.6-0.7-2.9-2.5-3.4
						c-2.2-0.6-1.7,0.8-3.8,0.8c-2.6-1.9-3-3.6-1.4-5.1c0.3-0.4,0.6-0.8,0.8-1.3c0.7-1.8,0.2-3-0.5-4.7c-1.2-2.6-4.4-4-0.3-6.8
						c0.5-0.3,1.2,0.2,1.7-0.2c2.2-1.6,0.9-2.2,1.2-4.4c1.2-8.4,4.7-2.8,6.4-1.7c0.6,0.4,1.3,0.8,2.1,0.8c2.4,0.2,3.6-1.6,4.1-3.7
						c0.4-1.9-2.5-2.7-2.9-0.8c-0.7,2.9-4.2-1.5-5-1.9c-1.6-0.8-3.3-0.7-4.8,0.1c-1.3,0.7-2.1,1.6-2.7,2.9c-0.7,1.5,0.5,3.9,0,5
						c-0.5,1.2-1.7,0.7-3,1.6c-1.1,0.8-1.6,2.1-1.9,3.4c-0.3,1.4-0.5,3.4,0.2,4.7c0.3,0.6,1,1,1.3,1.5c1.3,2.2,0.2,3.4-0.4,5.2
						c-0.8,2.6-2.3,5.5,0.3,7.8c1,0.8,2.2,1,3.4,1c0.6,0,1.2-0.5,1.7-0.4c0.8-0.8,1.5-0.6,2,0.4c0.9,0.5,1.2,1.2,1,2.2
						c1.3,2.7,3.5,4.5,6.8,4.3c1-0.1,2.3-0.3,3.1-1.1c1.3-1.2,0.6-3.8,1.8-4.8C696.5,72.7,694.3,70.6,692.8,71.8L692.8,71.8z"/>
				</g>
			</g>
			<g>
				<g>
					<path class="st1" d="M690.3,52c-3.6,1.4-4.9,5.7-4.7,9.3c0.2,4.5,5.5,5.1,8.9,4c3.4-1.1,5.7-4.7,5.1-8.2
						c-0.7-3.9-4.8-6.2-8.3-4.2c-1.7,1-0.2,3.5,1.5,2.6c2.5-1.4,4.4,1.5,3.8,3.7c-0.4,1.6-1.8,2.9-3.5,3.3c-0.7,0.2-3.1,0.3-3.8-0.1
						c-0.8-0.5-0.8-1.5-0.7-2.3c0.2-1.7,0.6-4.5,2.5-5.2C692.9,54.2,692.1,51.3,690.3,52L690.3,52z"/>
				</g>
			</g>
		</g>
	</g>
	<g class="st0">
		<g>
			<g>
				<path class="st1" d="M675.5,36.3c1.8-2.2,5.6-5.7,8.7-3.8c1.7,1,3.2-1.6,1.5-2.6c-4.4-2.7-9.5,1-12.3,4.3
					C672.2,35.6,674.3,37.7,675.5,36.3L675.5,36.3z"/>
			</g>
		</g>
		<g>
			<g>
				<path class="st1" d="M670.3,27.3c2.2-2.4,5-3.7,8.2-3.7c1.9,0,1.9-3,0-3c-4,0-7.7,1.6-10.3,4.6C666.9,26.6,669,28.7,670.3,27.3
					L670.3,27.3z"/>
			</g>
		</g>
		<g>
			<g>
				<path class="st1" d="M767,81.2c2,1.2,1.7,6.4,1.5,8.2c-0.3,3-1.3,5.8-2.2,8.6c-0.6,1.8,2.3,2.6,2.9,0.8
					c1.4-4.1,2.8-8.3,2.5-12.7c-0.2-2.5-0.8-6.1-3.1-7.5C766.9,77.7,765.4,80.3,767,81.2L767,81.2z"/>
			</g>
		</g>
		<g>
			<g>
				<path class="st1" d="M775.8,78.2c4.1,8.3,1.8,17-2.7,24.6c-1,1.7,1.6,3.2,2.6,1.5c5.1-8.6,7.3-18.3,2.7-27.6
					C777.5,75,775,76.5,775.8,78.2L775.8,78.2z"/>
			</g>
		</g>
	</g>
</g>
<g>
	<line class="st2" x1="744" y1="252" x2="15" y2="252"/>
	<line class="st2" x1="748" y1="252" x2="770" y2="252"/>
	<line class="st2" x1="780" y1="252" x2="790" y2="252"/>
	<line class="st2" x1="9" y1="252" x2="1" y2="252"/>
</g>
<path class="st3" d="M470.9,245h232.2c5.5,0,9.9-4.4,9.9-9.9V84.9c0-5.5-4.4-9.9-9.9-9.9H470.9c-5.5,0-9.9,4.4-9.9,9.9v150.2
	C461,240.6,465.4,245,470.9,245z"/>
<path class="st4" d="M441,252h292c5,0,9-4,9-9l0,0H432l0,0C432,248,436,252,441,252z"/>
<path class="st1" d="M570.8,247h32.3c2.1,0,3.8-1.7,3.8-3.8V243h-40v0.2C567,245.3,568.7,247,570.8,247z"/>
<rect x="482" y="103" class="st3" width="210" height="14"/>
<rect x="632" y="129" class="st3" width="60" height="60"/>
<rect x="557" y="129" class="st3" width="60" height="60"/>
<polyline class="st3" points="516,189 542,189 542,129 482,129 482,142 "/>
<path class="st5" d="M487,178c0,0,0.3-13,13-13s22.4,12.6,12,33c-7.9,15.5-25.3,23.5-25,33"/>
<line class="st2" x1="685" y1="110" x2="658" y2="110"/>
<line class="st2" x1="531" y1="110" x2="521" y2="110"/>
<line class="st2" x1="515" y1="110" x2="505" y2="110"/>
<line class="st2" x1="499" y1="110" x2="489" y2="110"/>
<line class="st2" x1="693" y1="203" x2="627" y2="203"/>
<line class="st2" x1="617" y1="203" x2="597" y2="203"/>
<line class="st6" x1="533" y1="142" x2="497" y2="142"/>
<line class="st6" x1="533" y1="153" x2="510" y2="153"/>
<line class="st2" x1="693" y1="223" x2="673" y2="223"/>
<line class="st2" x1="693" y1="213" x2="566" y2="213"/>
<line class="st2" x1="665" y1="223" x2="656" y2="223"/>
<line class="st2" x1="649" y1="223" x2="575" y2="223"/>
<rect x="644" y="153" transform="matrix(0.866 -0.5 0.5 0.866 6.854 347.5869)" class="st7" width="16" height="16"/>
<circle class="st8" cx="669" cy="158" r="11"/>
<path class="st9" d="M668.5,161.4l-14.6,5.1c-0.9,0.3-1.1,1.4-0.4,2.1l11.7,10.1c0.7,0.6,1.8,0.2,2-0.7l2.9-15.1
	C670.3,161.9,669.4,161.1,668.5,161.4z"/>
<polyline class="st10" points="561.5,167.5 572.8,162.3 577.8,166.8 594.7,159.5 600.7,166.8 612.9,161.8 "/>
<circle class="st11" cx="600" cy="147" r="8"/>
<g>
	<g class="st12">
		<path class="st13" d="M440.5,258h42c3.6,0,6.5-2.9,6.5-6.5v-100c0-3.6-2.9-6.5-6.5-6.5h-42c-3.6,0-6.5,2.9-6.5,6.5v100
			C434,255.1,436.9,258,440.5,258z"/>
	</g>
	<g>
		<g>
			<path class="st4" d="M438.5,256h42c3.6,0,6.5-2.9,6.5-6.5v-100c0-3.6-2.9-6.5-6.5-6.5h-42c-3.6,0-6.5,2.9-6.5,6.5v100
				C432,253.1,434.9,256,438.5,256z"/>
			<rect x="432" y="155" class="st3" width="55" height="89"/>
			<g>
				<circle class="st1" cx="459.5" cy="249.5" r="3.5"/>
			</g>
		</g>
	</g>
</g>
<path class="st5" d="M487,231c0.3-9.5-18.1-17.5-26-33c-10.4-20.4-0.7-33,12-33s14,13,14,13V231z"/>
<line class="st2" x1="487" y1="167" x2="487" y2="237"/>
<g class="st0">
	<g>
		<g>
			<path class="st1" d="M255,170.4c-20.9-0.2-41.8,0.5-62.6,2.1c-1.9,0.1-1.9,3.1,0,3c20.8-1.6,41.7-2.4,62.6-2.1
				C256.9,173.4,256.9,170.4,255,170.4L255,170.4z"/>
		</g>
	</g>
	<g>
		<g>
			<path class="st1" d="M253.5,175.8c-0.7,18.7-3.2,37.2-7.4,55.5c-0.4,1.9,2.5,2.7,2.9,0.8c4.2-18.5,6.7-37.3,7.5-56.3
				C256.6,173.9,253.6,173.9,253.5,175.8L253.5,175.8z"/>
		</g>
	</g>
	<g>
		<g>
			<path class="st1" d="M192.1,178.8c3.9,11.4,7.7,22.8,11.3,34.2c1.7,5.6,3.4,11.2,5.1,16.8c1.4,4.8,6.1,14.7,2.5,19.2
				c-1.2,1.5,0.9,3.6,2.1,2.1c2.6-3.2,2.4-6.6,1.6-10.5c-1.6-7.1-4-14.1-6.1-21c-4.2-14-8.8-27.9-13.6-41.7
				C194.4,176.2,191.5,177,192.1,178.8L192.1,178.8z"/>
		</g>
	</g>
	<g>
		<g>
			<path class="st1" d="M227.8,114.8c6.8,2.4,2.3,10.7-0.3,14.3c-2.4,3.5-4.6,6.8-5.6,10.9c-1.8,7.3-0.1,14.9,4.2,21
				c1.1,1.6,3.7,0.1,2.6-1.5c-3.3-4.6-4.9-9.9-4.5-15.5c0.6-6.5,4.4-10.7,7.6-16c3.2-5.4,3.8-13.6-3.3-16.1
				C226.8,111.3,226,114.2,227.8,114.8L227.8,114.8z"/>
		</g>
	</g>
	<g>
		<g>
			<path class="st1" d="M213,145c-3.6,8.1-2.9,17.1,2.2,24.4c1.1,1.6,3.7,0.1,2.6-1.5c-4.5-6.4-5.4-14.2-2.2-21.4
				C216.4,144.8,213.8,143.2,213,145L213,145z"/>
		</g>
	</g>
	<g>
		<g>
			<path class="st1" d="M200.5,193.5c-7.4-3.9-16,1.5-16.4,9.7c-0.4,10.4,9.4,16.1,18.6,16.4c1.9,0.1,1.9-2.9,0-3
				c-6.4-0.2-13.3-3-15.2-9.7c-2-6.8,4.2-14.6,11.4-10.8C200.7,197,202.2,194.4,200.5,193.5L200.5,193.5z"/>
		</g>
	</g>
</g>
<g class="st14">
	<g class="st15">
		<g>
			<path class="st1" d="M386.5,115.1c18.2,36.5,36.4,72.9,54.6,109.4c0.9,1.7,3.5,0.2,2.6-1.5c-18.2-36.5-36.4-72.9-54.6-109.4
				C388.3,111.8,385.7,113.3,386.5,115.1L386.5,115.1z"/>
		</g>
	</g>
	<g class="st15">
		<g>
			<path class="st1" d="M387.4,115c11.6-7.3,23-14.8,34.5-22.3c5.8-3.8,11.6-7.5,17.5-11.2c6.1-3.8,12.2-7.5,19.5-7.9
				c1.9-0.1,1.9-3.1,0-3c-13.2,0.7-24.8,10.6-35.4,17.5c-12.5,8.1-25,16.3-37.6,24.3C384.3,113.5,385.8,116.1,387.4,115L387.4,115z"
				/>
		</g>
	</g>
	<g class="st15">
		<g>
			<path class="st1" d="M407.9,126.3c7.4-6.5,15.5-12.2,24-17c1.7-0.9,0.2-3.5-1.5-2.6c-8.8,5-17,10.8-24.7,17.5
				C404.3,125.4,406.5,127.6,407.9,126.3L407.9,126.3z"/>
		</g>
	</g>
	<g class="st15">
		<g>
			<path class="st1" d="M416.3,142.6c14.3-12.1,29.9-22.3,46.8-30.5c1.7-0.8,0.2-3.4-1.5-2.6c-17.1,8.3-33,18.6-47.4,30.9
				C412.7,141.7,414.9,143.8,416.3,142.6L416.3,142.6z"/>
		</g>
	</g>
	<g class="st15">
		<g>
			<path class="st1" d="M421.1,151.4c14.4-12.9,30.5-23.4,48.1-31.3c1.8-0.8,0.2-3.4-1.5-2.6c-17.8,8-34.2,18.7-48.7,31.8
				C417.6,150.6,419.7,152.7,421.1,151.4L421.1,151.4z"/>
		</g>
	</g>
	<g class="st15">
		<g>
			<path class="st1" d="M425.4,160.6c8.4-6.5,17.7-11.7,27.7-15.4c1.8-0.7,1-3.6-0.8-2.9c-10.5,3.9-20.2,9.3-29,16.2
				C421.7,159.7,423.9,161.8,425.4,160.6L425.4,160.6z"/>
		</g>
	</g>
	<g class="st15">
		<g>
			<path class="st1" d="M432.8,182.2c8.4-6.5,17.7-11.7,27.7-15.4c1.8-0.7,1-3.6-0.8-2.9c-10.5,3.9-20.2,9.3-29,16.2
				C429.1,181.3,431.3,183.4,432.8,182.2L432.8,182.2z"/>
		</g>
	</g>
	<g class="st15">
		<g>
			<path class="st1" d="M387,132.6c15.1,33.2,32,65.9,51.4,96.8c1,1.6,3.6,0.1,2.6-1.5c-19.4-30.9-36.3-63.6-51.4-96.8
				C388.8,129.4,386.2,130.9,387,132.6L387,132.6z"/>
		</g>
	</g>
	<g class="st15">
		<g>
			<path class="st1" d="M386.6,151.7c16.4,27.5,28.3,57.6,47,83.7c1.1,1.6,3.7,0.1,2.6-1.5c-18.7-26.1-30.6-56.2-47-83.7
				C388.2,148.5,385.6,150,386.6,151.7L386.6,151.7z"/>
		</g>
	</g>
</g>
<g class="st0">
	<g>
		<g>
			<path class="st1" d="M360.9,206.7c7.6,8.9,6.9,22.4-2.3,30c-9,7.3-25.4,6-33.2-2.7c-3.8-4.3-5.3-10.1-4.9-15.7
				c0.5-6.9,4.5-11.1,10.5-14.2c10.8-5.7,24.7-4.1,31.6,6.8c1,1.6,3.6,0.1,2.6-1.5c-7.7-12.3-23.4-14.4-35.7-7.9
				c-6.1,3.2-10.6,7.6-11.7,14.5c-1,6.6,0.3,13.7,4.5,19c8.6,10.8,27.5,12.7,38.1,4.1c10.7-8.7,11.3-24.2,2.6-34.5
				C361.7,203.1,359.6,205.2,360.9,206.7L360.9,206.7z"/>
		</g>
	</g>
	<g>
		<g>
			<path class="st1" d="M351.9,210.1c5.9,3.8,8.5,11.7,4.8,17.9c-3.8,6.3-11.9,7.8-18.1,4.5c-6.9-3.8-10.3-11.4-5.9-18.5
				c4.5-7.1,13.9-7.9,20.1-2.9c1.5,1.2,3.6-0.9,2.1-2.1c-7.2-5.8-17.8-5.6-23.8,2c-6.3,8-3.5,17.9,4.5,23.2c7.6,5,17.9,3.6,23.1-4.2
				c5.2-7.6,2-17.9-5.5-22.6C351.8,206.5,350.3,209.1,351.9,210.1L351.9,210.1z"/>
		</g>
	</g>
	<g>
		<g>
			<path class="st1" d="M351.9,216.1c3.4,3.9,1.3,9.3-3.6,10.3c-1.9,0.4-1.1,3.3,0.8,2.9c7.3-1.4,9.7-9.9,4.9-15.3
				C352.7,212.5,350.6,214.7,351.9,216.1L351.9,216.1z"/>
		</g>
	</g>
	<g>
		<g>
			<path class="st1" d="M383.2,200.3c0.2,13.1-0.6,26.2-2.3,39.3c0.5-0.5,1-1,1.5-1.5c-4.6-0.4-9.1-1-13.7-1.7
				c-1.9-0.3-2.7,2.6-0.8,2.9c4.8,0.7,9.6,1.3,14.5,1.8c0.9,0.1,1.4-0.8,1.5-1.5c1.7-13,2.5-26.1,2.3-39.3
				C386.2,198.4,383.2,198.4,383.2,200.3L383.2,200.3z"/>
		</g>
	</g>
	<g>
		<g>
			<path class="st1" d="M385.1,198.6c-6.3-2-12.7-0.2-19.1-0.8c-1.9-0.2-1.9,2.8,0,3c6.1,0.6,12.4-1.2,18.4,0.7
				C386.1,202.1,386.9,199.2,385.1,198.6L385.1,198.6z"/>
		</g>
	</g>
	<g>
		<g>
			<path class="st1" d="M325.3,196.8c-7.6,0-15.3,0.4-22.9,1.2c-1.4,0.1-1.9,1.5-1.1,2.6c1.7,2.2,1.4,6.4,1.6,9.1
				c0.2,3.2,0.4,6.4,0.5,9.7c0.3,6.4,0.3,12.9,0.1,19.3c0,0.8,0.7,1.6,1.5,1.5c4.2-0.3,8.3-0.6,12.5-0.8c1.9-0.1,1.9-3.1,0-3
				c-4.2,0.3-8.3,0.6-12.5,0.8c0.5,0.5,1,1,1.5,1.5c0.2-8.1,0.1-16.1-0.4-24.2c-0.3-5,0.5-11.9-2.8-16c-0.4,0.9-0.7,1.7-1.1,2.6
				c7.6-0.8,15.2-1.2,22.9-1.2C327.3,199.8,327.3,196.8,325.3,196.8L325.3,196.8z"/>
		</g>
	</g>
	<g>
		<g>
			<path class="st1" d="M381.3,198.4c0.4-3,1.6-5.9-2-6.8c-3.7-1-9.4-2.4-13.3-1.6c-0.5,0.1-0.9,0.6-1,1.1c-0.5,1.5-0.2,3.4-0.2,5
				c0,1.9,3,1.9,3,0c0-1.3-0.3-3,0.1-4.2c-0.4,0.4-0.7,0.7-1,1.1c2.5-0.5,6,0.5,8.6,0.9c0.5,0.1,3.5,0.4,3.6,0.8
				c0.1,0.2-0.6,2.6-0.6,3C378.2,199.5,381,200.3,381.3,198.4L381.3,198.4z"/>
		</g>
	</g>
</g>
<g class="st0">
	<g>
		<g>
			<path class="st1" d="M395.6,129.8c3,0.1,6,0.5,8.9,1.4c1.9,0.6,2.6-2.3,0.8-2.9c-3.1-1-6.4-1.5-9.6-1.5
				C393.7,126.8,393.7,129.8,395.6,129.8L395.6,129.8z"/>
		</g>
	</g>
	<g>
		<g>
			<path class="st1" d="M428.3,135.3c3.1,0.5,6.2,0.5,9.4-0.1c1.9-0.4,1.1-3.2-0.8-2.9c-2.6,0.5-5.2,0.5-7.8,0.1
				C427.2,132.1,426.4,134.9,428.3,135.3L428.3,135.3z"/>
		</g>
	</g>
	<g>
		<g>
			<path class="st1" d="M419.9,121.6c-0.2-3.8,0.7-7.2,2.8-10.3c1.1-1.6-1.5-3.1-2.6-1.5c-2.4,3.5-3.5,7.6-3.2,11.8
				C417,123.5,420,123.5,419.9,121.6L419.9,121.6z"/>
		</g>
	</g>
	<g>
		<g>
			<path class="st1" d="M413.4,141.2c-0.2,2.5-0.4,5.1-0.6,7.6c-0.1,1.9,2.9,1.9,3,0c0.2-2.5,0.4-5.1,0.6-7.6
				C416.5,139.3,413.5,139.3,413.4,141.2L413.4,141.2z"/>
		</g>
	</g>
	<g>
		<g>
			<path class="st1" d="M425.3,126.1c1-1.1,2.2-2.1,3.5-2.8c1.7-1,0.2-3.6-1.5-2.6c-1.5,0.9-2.9,2-4.1,3.3
				C421.8,125.3,424,127.5,425.3,126.1L425.3,126.1z"/>
		</g>
	</g>
	<g>
		<g>
			<path class="st1" d="M408,121.2c-1-0.9-2-1.9-2.9-2.9c-1.4-1.3-3.5,0.8-2.1,2.1c1,0.9,2,1.9,2.9,2.9
				C407.3,124.6,409.4,122.5,408,121.2L408,121.2z"/>
		</g>
	</g>
	<g>
		<g>
			<path class="st1" d="M405.7,137.3c-1.7,1.1-2.9,2.7-3.6,4.6c-0.3,0.8,0.3,1.6,1,1.9c0.8,0.2,1.6-0.3,1.9-1.1
				c0.4-1.1,1.2-2.1,2.2-2.8C408.8,138.8,407.3,136.2,405.7,137.3L405.7,137.3z"/>
		</g>
	</g>
	<g>
		<g>
			<path class="st1" d="M422,141.5c0.2,0.1,0.5,0.3,0.7,0.4c-0.2-0.1,0.2,0.2,0.2,0.2c0.1,0.1,0.2,0.2,0.3,0.3
				c0.1,0.1,0.2,0.2,0.3,0.3c0,0,0.1,0.1,0.1,0.1c-0.1-0.1-0.1-0.1,0,0c0.2,0.2,0.3,0.5,0.5,0.7c0.4,0.7,1.4,0.9,2,0.5
				c0.7-0.4,0.9-1.3,0.5-2.1c-0.7-1.3-1.8-2.4-3-3.1c-0.7-0.4-1.6-0.2-2,0.5C421.1,140.1,421.3,141.1,422,141.5L422,141.5z"/>
		</g>
	</g>
</g>
</svg>
